<?xml version="1.0" encoding="UTF-8" standalone="no"?>
<!-- Created with Inkscape (http://www.inkscape.org/) -->

<svg
   width="160"
   height="160"
   viewBox="0 0 42.333328 42.333328"
   version="1.1"
   id="svg1"
   inkscape:version="1.4.2 (f4327f4, 2025-05-13)"
   sodipodi:docname="BulbArrow.svg"
   xmlns:inkscape="http://www.inkscape.org/namespaces/inkscape"
   xmlns:sodipodi="http://sodipodi.sourceforge.net/DTD/sodipodi-0.dtd"
   xmlns:xlink="http://www.w3.org/1999/xlink"
   xmlns="http://www.w3.org/2000/svg"
   xmlns:svg="http://www.w3.org/2000/svg">
  <sodipodi:namedview
     id="namedview1"
     pagecolor="#505050"
     bordercolor="#eeeeee"
     borderopacity="1"
     inkscape:showpageshadow="0"
     inkscape:pageopacity="0"
     inkscape:pagecheckerboard="0"
     inkscape:deskcolor="#505050"
     inkscape:document-units="px"
     inkscape:zoom="3.4016122"
     inkscape:cx="89.810356"
     inkscape:cy="62.1764"
     inkscape:window-width="1600"
     inkscape:window-height="877"
     inkscape:window-x="-8"
     inkscape:window-y="-8"
     inkscape:window-maximized="1"
     inkscape:current-layer="svg1" />
  <defs
     id="defs1">
    <linearGradient
       id="linearGradient14"
       inkscape:collect="always">
      <stop
         style="stop-color:#c862ae;stop-opacity:1;"
         offset="0"
         id="stop13" />
      <stop
         style="stop-color:#d14821;stop-opacity:1;"
         offset="1"
         id="stop14" />
    </linearGradient>
    <linearGradient
       id="linearGradient8"
       inkscape:collect="always">
      <stop
         style="stop-color:#12870c;stop-opacity:1;"
         offset="0"
         id="stop9" />
      <stop
         style="stop-color:#51ef49;stop-opacity:1;"
         offset="1"
         id="stop10" />
    </linearGradient>
    <linearGradient
       id="linearGradient7"
       inkscape:collect="always">
      <stop
         style="stop-color:#c862ae;stop-opacity:1;"
         offset="0"
         id="stop7" />
      <stop
         style="stop-color:#d14821;stop-opacity:1;"
         offset="1"
         id="stop8" />
    </linearGradient>
    <radialGradient
       inkscape:collect="always"
       xlink:href="#linearGradient14"
       id="radialGradient8"
       cx="12.703321"
       cy="26.37644"
       fx="12.703321"
       fy="26.37644"
       r="17.232555"
       gradientTransform="matrix(1.7943261,0.00332945,-0.00203336,1.0958326,-11.063081,-9.2625424)"
       gradientUnits="userSpaceOnUse" />
    <linearGradient
       inkscape:collect="always"
       xlink:href="#linearGradient8"
       id="linearGradient10"
       x1="6.2008405"
       y1="16.940947"
       x2="6.2008405"
       y2="4.7184033"
       gradientUnits="userSpaceOnUse" />
    <linearGradient
       inkscape:collect="always"
       xlink:href="#linearGradient8"
       id="linearGradient11"
       gradientUnits="userSpaceOnUse"
       x1="6.2008405"
       y1="16.940947"
       x2="6.2008405"
       y2="4.7184033"
       gradientTransform="matrix(1,0,0,-1,0.06247617,42.504855)" />
    <radialGradient
       inkscape:collect="always"
       xlink:href="#linearGradient7"
       id="radialGradient11"
       gradientUnits="userSpaceOnUse"
       gradientTransform="matrix(1.7943261,-0.00332945,-0.00203336,-1.0958326,-11.078387,51.689616)"
       cx="12.703321"
       cy="26.37644"
       fx="12.703321"
       fy="26.37644"
       r="17.232555" />
  </defs>
  <path
     style="fill:url(#radialGradient11);fill-rule:evenodd;stroke:#1d071a;stroke-width:0.264583;stroke-linecap:round;stroke-dasharray:none;stroke-opacity:0.313343"
     d="m 0.2645833,21.166664 c 0,0 3.4276932,3.911509 6.2585071,7.608535 1.699995,2.220183 3.7786986,6.114204 5.8288996,6.418173 5.441616,0.806788 10.394568,-4.859464 14.078494,-8.9449 3.296221,-3.655475 7.965345,-5.081808 7.965345,-5.081808 z"
     id="path10"
     sodipodi:nodetypes="cssscc"
     inkscape:label="Lower Bulb" />
  <path
     style="fill:url(#radialGradient8);fill-rule:evenodd;stroke:#1d071a;stroke-width:0.264583;stroke-linecap:round;stroke-dasharray:none;stroke-opacity:0.313343"
     d="m 0.2645833,21.166664 c 0,0 3.4429986,-3.817764 6.2738125,-7.51479 1.699995,-2.220183 3.7786992,-6.1142042 5.8289002,-6.4181724 5.441616,-0.8067885 10.394568,4.8594634 14.078494,8.9448994 3.296221,3.655475 7.950039,4.988063 7.950039,4.988063 z"
     id="path5"
     sodipodi:nodetypes="cssscc"
     inkscape:label="Upper Bulb" />
  <g
     inkscape:label="Layer 1"
     inkscape:groupmode="layer"
     id="layer1" />
  <path
     style="fill:none;fill-opacity:1;fill-rule:evenodd;stroke:#1d071a;stroke-width:0.264583;stroke-linecap:round;stroke-dasharray:none;stroke-opacity:0.313343"
     d="m 0.2645833,21.166664 c 0,0 7.3698822,-7.465781 15.0584187,-7.467047 5.604328,-9.23e-4 7.272258,2.679286 11.023655,4.658021 3.66499,1.93316 8.049172,2.809026 8.049172,2.809026"
     id="path12"
     sodipodi:nodetypes="cssc"
     inkscape:label="Upper Line" />
  <path
     style="fill:none;fill-opacity:1;fill-rule:evenodd;stroke:#1d071a;stroke-width:0.264583;stroke-linecap:round;stroke-dasharray:none;stroke-opacity:0.313343"
     d="m 0.26458333,21.166664 c 0,0 7.36988177,7.465781 15.05841867,7.467047 5.604328,9.23e-4 7.272258,-2.679286 11.023655,-4.658021 3.66499,-1.93316 8.049172,-2.809026 8.049172,-2.809026"
     id="path13"
     sodipodi:nodetypes="cssc"
     inkscape:label="Lower Line" />
  <path
     style="fill:url(#linearGradient11);fill-opacity:1;fill-rule:evenodd;stroke:#000000;stroke-width:0.264583;stroke-linecap:round;stroke-dasharray:none;stroke-opacity:0.313343"
     d="m 0.2645833,21.166664 c 0,0 1.1030097,6.157752 5.3061776,8.946301 6.2850721,4.169767 6.6000711,11.95578 6.6000711,11.95578 0,0 0.313793,-9.584813 -1.841167,-13.253476 C 8.2413527,25.260069 0.2645833,21.166664 0.2645833,21.166664 Z"
     id="path11"
     sodipodi:nodetypes="cscsc"
     inkscape:label="Lower Leaf" />
  <path
     style="fill:url(#linearGradient10);fill-opacity:1;fill-rule:evenodd;stroke:#000000;stroke-width:0.264583;stroke-linecap:round;stroke-dasharray:none;stroke-opacity:0.313343"
     d="m 0.2645833,21.166664 c 0,0 1.0405334,-5.986225 5.2437013,-8.774774 C 11.793357,8.2221231 12.170832,0.2645833 12.170832,0.2645833 c 0,0 0.251317,9.7563397 -1.903643,13.4250027 -2.0883126,3.5552 -10.0026057,7.477078 -10.0026057,7.477078 z"
     id="path1"
     sodipodi:nodetypes="cscsc"
     inkscape:label="Upper Leaf" />
</svg>
