<?xml version="1.0" encoding="UTF-8" standalone="no"?>
<!-- Uploaded to: SVG Repo, www.svgrepo.com, Generator: SVG Repo Mixer Tools -->

<svg
   fill="#000000"
   width="32"
   height="32"
   viewBox="0 0 1.92 1.92"
   version="1.1"
   id="svg1"
   sodipodi:docname="Cursor_Rotate.svg"
   inkscape:version="1.4.2 (f4327f4, 2025-05-13)"
   xmlns:inkscape="http://www.inkscape.org/namespaces/inkscape"
   xmlns:sodipodi="http://sodipodi.sourceforge.net/DTD/sodipodi-0.dtd"
   xmlns="http://www.w3.org/2000/svg"
   xmlns:svg="http://www.w3.org/2000/svg">
  <defs
     id="defs1" />
  <sodipodi:namedview
     id="namedview1"
     pagecolor="#505050"
     bordercolor="#eeeeee"
     borderopacity="1"
     inkscape:showpageshadow="0"
     inkscape:pageopacity="0"
     inkscape:pagecheckerboard="0"
     inkscape:deskcolor="#505050"
     inkscape:zoom="8"
     inkscape:cx="32.1875"
     inkscape:cy="28.3125"
     inkscape:window-width="1600"
     inkscape:window-height="877"
     inkscape:window-x="-8"
     inkscape:window-y="-8"
     inkscape:window-maximized="1"
     inkscape:current-layer="svg1" />
  <path
     d="m 0.96375,0.20745628 c -0.51912617,0 -0.91074767,0.28804891 -0.91074767,0.66988117 0,0.32824175 0.29052851,0.58681585 0.70218645,0.65380395 l -0.0382514,0.054931 C 0.60922583,1.743227 0.83231272,1.90485 0.94376355,1.7838188 1.0347891,1.6717574 1.2012891,1.4110812 1.2012891,1.4110812 c 0,0 -0.131311,-0.2606047 -0.29502555,-0.3984145 C 0.7525412,0.90086808 0.60446503,1.0873644 0.69068738,1.214163 L 0.72786628,1.25516 C 0.41730139,1.1908417 0.34765186,1.0113136 0.34765186,0.8773374 c 0,-0.16345102 0.17165328,-0.38692871 0.61609814,-0.38692871 0.4444449,0 0.6169749,0.23835908 0.6235982,0.38692871 0.016309,0.3656201 -0.3442439,0.3178042 -0.3316238,0.52652 0.062772,0.2753299 0.6093834,0.044885 0.6187732,-0.52651995 C 1.8807713,0.49555673 1.4828762,0.20745628 0.96375,0.20745628 Z"
     id="path1"
     style="stroke:#fee2e2;stroke-width:0.106646;stroke-dasharray:none;stroke-opacity:1"
     sodipodi:nodetypes="sscccccccssscss" />
</svg>
