<?xml version="1.0" encoding="UTF-8" standalone="no"?>
<!-- Created with Inkscape (http://www.inkscape.org/) -->

<svg
   width="1440pt"
   height="960pt"
   viewBox="0 0 1440 960"
   version="1.1"
   id="svg1"
   inkscape:version="1.4.2 (f4327f4, 2025-05-13)"
   sodipodi:docname="HojaLogo.svg"
   inkscape:export-filename="HojaLogoSVG.svg"
   inkscape:export-xdpi="96"
   inkscape:export-ydpi="96"
   xmlns:inkscape="http://www.inkscape.org/namespaces/inkscape"
   xmlns:sodipodi="http://sodipodi.sourceforge.net/DTD/sodipodi-0.dtd"
   xmlns="http://www.w3.org/2000/svg"
   xmlns:svg="http://www.w3.org/2000/svg">
  <sodipodi:namedview
     id="namedview1"
     pagecolor="#505050"
     bordercolor="#eeeeee"
     borderopacity="1"
     inkscape:showpageshadow="0"
     inkscape:pageopacity="0"
     inkscape:pagecheckerboard="0"
     inkscape:deskcolor="#505050"
     inkscape:document-units="pt"
     inkscape:zoom="0.39694747"
     inkscape:cx="974.94009"
     inkscape:cy="429.52787"
     inkscape:window-width="1600"
     inkscape:window-height="877"
     inkscape:window-x="-8"
     inkscape:window-y="-8"
     inkscape:window-maximized="1"
     inkscape:current-layer="layer1" />
  <defs
     id="defs1">
    <inkscape:path-effect
       effect="taper_stroke"
       start_shape="center | center"
       end_shape="center | center"
       id="path-effect15"
       is_visible="true"
       lpeversion="1"
       stroke_width="30"
       subpath="1"
       attach_start="0"
       end_offset="0"
       start_smoothing="0"
       end_smoothing="0"
       jointype="extrapolated"
       miter_limit="100" />
    <inkscape:path-effect
       effect="taper_stroke"
       start_shape="center | center"
       end_shape="center | center"
       id="path-effect6"
       is_visible="true"
       lpeversion="1"
       stroke_width="28.346457"
       subpath="1"
       attach_start="0.2"
       end_offset="0.2"
       start_smoothing="0.5"
       end_smoothing="0.5"
       jointype="extrapolated"
       miter_limit="100" />
  </defs>
  <g
     inkscape:label="Layer 1"
     inkscape:groupmode="layer"
     id="layer1">
    <path
       style="fill:#000000;fill-rule:evenodd;stroke:#000000;stroke-width:0.75;stroke-linecap:round;stroke-linejoin:round"
       d="M 360,0 V 423.32868 960"
       id="path1"
       sodipodi:nodetypes="ccc" />
    <path
       style="fill:#000000;fill-rule:evenodd;stroke:#000000;stroke-width:0.75;stroke-linecap:round;stroke-linejoin:round"
       d="M 720,0 V 960"
       id="path2"
       sodipodi:nodetypes="cc" />
    <path
       style="fill:#000000;fill-rule:evenodd;stroke:#000000;stroke-width:0.75;stroke-linecap:round;stroke-linejoin:round"
       d="M 1080,0 V 960"
       id="path3"
       sodipodi:nodetypes="cc" />
    <path
       style="fill:#000000;fill-rule:evenodd;stroke:#000000;stroke-width:0.75;stroke-linecap:round;stroke-linejoin:round"
       d="M 0,320 H 1440"
       id="path4"
       sodipodi:nodetypes="cc" />
    <path
       style="fill:#000000;fill-rule:evenodd;stroke:#000000;stroke-width:0.75;stroke-linecap:round;stroke-linejoin:round"
       d="M 0,640 H 1440"
       id="path5"
       sodipodi:nodetypes="cc" />
    <path
       style="fill:none;fill-rule:nonzero;stroke:#000000;stroke-width:30;stroke-linecap:butt;stroke-linejoin:round;stroke-dasharray:none"
       d="m 0,16.5 c 0,0 40.111111,0.561483 40,80 -0.20057,143.39732 0,543.5 0,543.5"
       id="path6"
       sodipodi:nodetypes="csc" />
    <path
       style="fill:none;fill-rule:evenodd;stroke:#000000;stroke-width:30;stroke-linecap:round;stroke-linejoin:round;stroke-dasharray:none"
       d="m 40,625 c 0,0 -0.46215,1.23853 0,-81 0.712934,-126.86483 65.78927,-209 140,-209 76.59885,0 140,73.4577 140,209 0,91.05988 40,81 40,81"
       id="path7"
       sodipodi:nodetypes="csssc" />
    <path
       style="fill:none;fill-rule:evenodd;stroke:#000000;stroke-width:30;stroke-linecap:round;stroke-linejoin:round;stroke-dasharray:none"
       d="m 395,480 c 0,-73.02648 64.38965,-145 145,-145 80.61035,0 145,71.97352 145,145 0,73.02648 -64.38965,145 -145,145 -80.61035,0 -145,-71.97352 -145,-145 z"
       id="path8"
       sodipodi:nodetypes="sssss" />
    <path
       style="fill:none;fill-rule:evenodd;stroke:#000000;stroke-width:0.75;stroke-linecap:round;stroke-linejoin:round;stroke-dasharray:none"
       d="m 720,160 h 360"
       id="path9"
       sodipodi:nodetypes="cc" />
    <path
       style="fill:none;fill-rule:evenodd;stroke:#000000;stroke-width:0.75;stroke-linecap:round;stroke-linejoin:round;stroke-dasharray:none"
       d="M 900,0 V 640"
       id="path10"
       sodipodi:nodetypes="cc" />
    <path
       style="fill:none;fill-rule:evenodd;stroke:#000000;stroke-width:30;stroke-linecap:round;stroke-linejoin:round;stroke-dasharray:none"
       d="m 900,320 v 480 c 0,80.2773 -83.09103,143.5 -180,143.5 -87.3499,0 -141.53014,-75.34837 -90,-143.5 38.91248,-51.46404 91.29985,-71.05975 180,-80 101.62925,-10.2434 180,-44.8018 180,-80"
       id="path11"
       sodipodi:nodetypes="cssssc" />
    <circle
       style="fill:#000000;fill-opacity:1;fill-rule:evenodd;stroke:none;stroke-width:60.567;stroke-linecap:round;stroke-linejoin:round;stroke-dasharray:none"
       id="path12"
       cx="900"
       cy="160"
       r="30" />
    <path
       style="fill:none;fill-opacity:1;fill-rule:evenodd;stroke:#000000;stroke-width:30;stroke-linecap:round;stroke-linejoin:round;stroke-dasharray:none;stroke-opacity:1"
       d="m 1093.5,480 c -0.3787,-73.92429 72.0762,-144.52795 146,-145 76.2405,-0.48684 144.0657,63.10501 144,145 -0.062,76.6301 -70.9346,145.24628 -144,145 -73.2681,-0.24696 -145.6246,-71.73243 -146,-145 z"
       id="path13"
       sodipodi:nodetypes="sssss" />
    <path
       style="fill:none;fill-opacity:1;fill-rule:nonzero;stroke:#000000;stroke-width:30;stroke-linecap:butt;stroke-linejoin:round;stroke-dasharray:none;stroke-opacity:1"
       d="m 1440,625 c 0,0 -40,-0.5733 -40,-81.5 V 380"
       id="path15"
       sodipodi:nodetypes="csc" />
    <path
       style="fill:none;fill-opacity:1;fill-rule:evenodd;stroke:#000000;stroke-width:30;stroke-linecap:round;stroke-linejoin:round;stroke-dasharray:none;stroke-opacity:1"
       d="M 1400.0593,478.02295 1400,380"
       id="path16"
       sodipodi:nodetypes="cc" />
  </g>
</svg>
