<?xml version="1.0" encoding="UTF-8" standalone="no"?>
<!-- Created with Inkscape (http://www.inkscape.org/) -->

<svg
   width="1000pt"
   height="1000pt"
   viewBox="0 0 352.77778 352.77778"
   version="1.1"
   id="svg1"
   xmlns="http://www.w3.org/2000/svg"
   xmlns:svg="http://www.w3.org/2000/svg">
  <defs
     id="defs1" />
  <g
     id="layer1">
    <g
       id="layer2">
      <path
         style="fill:#43ed51;fill-opacity:1;stroke:#000000;stroke-width:2.94715;stroke-linejoin:round;stroke-dasharray:none;stroke-opacity:1"
         d="m 327.99576,14.907603 c 0,0 -27.01463,26.053968 -74.43514,33.990836 C 208.55941,56.430384 122.14129,39.58231 77.116429,74.483166 -0.18444478,134.40265 54.429732,233.0615 54.342173,257.27608 c -0.02181,6.03259 -22.213852,24.08345 -26.596319,41.49809 -4.925457,19.57233 12.87464,36.47425 12.87464,36.47425 -0.432731,-1.49203 -5.831019,-21.10504 5.218225,-34.86682 8.573969,-10.67883 23.334366,-18.6789 31.339609,-18.37575 102.631842,23.24779 191.701872,46.57616 241.888832,-48.87477 29.53711,-56.17683 8.9286,-218.223477 8.9286,-218.223477 z"
         id="path1" />
      <path
         style="fill:#13bf21;fill-opacity:1;stroke:none;stroke-width:3;stroke-linejoin:round;stroke-dasharray:none;stroke-opacity:1"
         d="m 102.6719,286.85908 c 0,0 122.16491,30.66514 183.33107,-80.45048 32.16932,-58.43941 40.68037,-190.229997 40.68037,-190.229997 0,0 18.95582,152.484257 -3.11129,208.455077 -49.09407,124.52176 -220.90015,62.2254 -220.90015,62.2254 z"
         id="path3" />
      <path
         style="fill:none;fill-opacity:1;stroke:#000000;stroke-width:2;stroke-linejoin:round;stroke-dasharray:none;stroke-opacity:1"
         d="m 59.73638,272.54724 c 0,0 5.394298,-3.01059 10.602517,-12.43171 11.396208,-20.61453 36.307593,-64.4925 63.445713,-87.12894 40.44331,-33.73457 86.45361,-38.39029 119.59076,-62.92943 39.84186,-29.504197 74.55247,-94.500811 74.55247,-94.500811"
         id="path5" />
      <path
         style="fill:none;fill-opacity:1;stroke:#d6fafa;stroke-width:10;stroke-linecap:round;stroke-linejoin:round;stroke-dasharray:none;stroke-opacity:1"
         d="m 123.82854,62.84765 c 23.891,-4.378613 53.28626,-4.746954 98.93838,-3.733524"
         id="path6" />
      <path
         style="fill:none;fill-opacity:1;stroke:#d6fafa;stroke-width:10;stroke-linecap:round;stroke-linejoin:round;stroke-dasharray:none;stroke-opacity:1"
         d="m 123.82854,62.84765 c 23.891,-4.378613 53.28626,-4.746954 98.93838,-3.733524"
         id="path7" />
      <path
         style="fill:none;fill-opacity:1;stroke:#d6fafa;stroke-width:6.96895;stroke-linecap:round;stroke-linejoin:round;stroke-dasharray:none;stroke-opacity:1"
         d="m 287.83308,45.696816 c 11.09776,-3.80208 11.926,-5.680503 21.0754,-10.158927"
         id="path8" />
      <ellipse
         style="fill:#d6fafa;fill-opacity:1;stroke:none;stroke-width:116.833;stroke-linecap:round;stroke-linejoin:round;stroke-dasharray:none;stroke-opacity:1"
         id="path9"
         cx="234.27861"
         cy="57.869621"
         rx="4.0446506"
         ry="4.3557777" />
      <ellipse
         style="fill:#d6fafa;fill-opacity:1;stroke:none;stroke-width:116.833;stroke-linecap:round;stroke-linejoin:round;stroke-dasharray:none;stroke-opacity:1"
         id="ellipse9"
         cx="113.56134"
         cy="64.714417"
         rx="4.0446506"
         ry="4.3557777" />
    </g>
    <path
       style="fill:none;fill-opacity:1;stroke:#000000;stroke-width:2.94715;stroke-linejoin:round;stroke-dasharray:none;stroke-opacity:1"
       d="m 327.99576,14.907603 c 0,0 -27.01463,26.053968 -74.43514,33.990836 C 208.55941,56.430384 122.14129,39.58231 77.116429,74.483166 -0.18444478,134.40265 54.429732,233.0615 54.342173,257.27608 c -0.02181,6.03259 -22.213852,24.08345 -26.596319,41.49809 -4.925457,19.57233 12.87464,36.47425 12.87464,36.47425 -0.432731,-1.49203 -5.831019,-21.10504 5.218225,-34.86682 8.573969,-10.67883 23.334366,-18.6789 31.339609,-18.37575 102.631842,23.24779 191.701872,46.57616 241.888832,-48.87477 29.53711,-56.17683 8.9286,-218.223477 8.9286,-218.223477 z"
       id="path4" />
  </g>
</svg>
